<svg width="269" height="269" viewBox="0 0 269 269" fill="none" xmlns="http://www.w3.org/2000/svg">
<path d="M85.4548 75.3267C85.463 33.8003 119.133 0.143161 160.66 0.15141V0.15141L160.621 193.726C160.613 235.252 126.943 268.909 85.4163 268.901V268.901L85.4548 75.3267Z" fill="white"/>
<path d="M193.81 0.609151C235.336 0.739829 268.894 34.5094 268.763 76.0355V76.0355L75.1898 75.4264C33.6636 75.2957 0.105919 41.5262 0.236597 -8.2723e-07V-8.2723e-07L193.81 0.609151Z" fill="white"/>
<path d="M170.361 131.446C170.475 167.732 199.983 197.055 236.268 196.94V196.94L236.113 147.427C235.998 111.141 206.491 81.8185 170.205 81.9327V81.9327L170.361 131.446Z" fill="white"/>
</svg>
