<svg width="754" height="269" viewBox="0 0 754 269" fill="none" xmlns="http://www.w3.org/2000/svg">
<path d="M85.4548 75.3267C85.463 33.8003 119.133 0.143161 160.66 0.15141V0.15141L160.621 193.726C160.613 235.252 126.943 268.909 85.4163 268.901V268.901L85.4548 75.3267Z" fill="url(#paint0_linear_2116_717)"/>
<path d="M193.81 0.609151C235.336 0.739829 268.894 34.5094 268.763 76.0355V76.0355L75.1898 75.4264C33.6636 75.2957 0.105919 41.5262 0.236597 -8.2723e-07V-8.2723e-07L193.81 0.609151Z" fill="white"/>
<path d="M170.361 131.446C170.475 167.732 199.983 197.054 236.268 196.94V196.94L236.113 147.427C235.998 111.141 206.491 81.8184 170.205 81.9326V81.9326L170.361 131.446Z" fill="white"/>
<path d="M366.935 36V52.1759H333.181V69.6506H358.438V85.3542H333.181V118.887H313V36H366.935Z" fill="white"/>
<path d="M442.572 53.0024V118.887H422.39V109.913C420.345 112.826 417.551 115.187 414.011 116.998C410.549 118.729 406.693 119.595 402.445 119.595C397.409 119.595 392.964 118.493 389.108 116.289C385.253 114.006 382.263 110.74 380.139 106.489C378.015 102.239 376.952 97.2402 376.952 91.494V53.0024H397.016V88.7783C397.016 93.1863 398.157 96.6104 400.438 99.0506C402.72 101.491 405.789 102.711 409.644 102.711C413.578 102.711 416.686 101.491 418.968 99.0506C421.249 96.6104 422.39 93.1863 422.39 88.7783V53.0024H442.572Z" fill="white"/>
<path d="M493.772 101.766V118.887H483.505C476.187 118.887 470.483 117.116 466.392 113.573C462.3 109.953 460.254 104.088 460.254 95.9807V69.7687H452.229V53.0024H460.254V36.9446H480.436V53.0024H493.654V69.7687H480.436V96.2169C480.436 98.1847 480.908 99.6016 481.852 100.467C482.796 101.333 484.37 101.766 486.573 101.766H493.772Z" fill="white"/>
<path d="M570.043 53.0024V118.887H549.862V109.913C547.816 112.826 545.023 115.187 541.482 116.998C538.02 118.729 534.165 119.595 529.916 119.595C524.881 119.595 520.435 118.493 516.58 116.289C512.724 114.006 509.735 110.74 507.61 106.489C505.486 102.239 504.424 97.2402 504.424 91.494V53.0024H524.487V88.7783C524.487 93.1863 525.628 96.6104 527.91 99.0506C530.191 101.491 533.26 102.711 537.115 102.711C541.049 102.711 544.157 101.491 546.439 99.0506C548.721 96.6104 549.862 93.1863 549.862 88.7783V53.0024H570.043Z" fill="white"/>
<path d="M604.721 63.9831C607.081 60.3622 610.032 57.5285 613.572 55.4819C617.113 53.3566 621.047 52.294 625.374 52.294V73.6651H619.827C614.792 73.6651 611.015 74.7671 608.497 76.9711C605.98 79.0964 604.721 82.8747 604.721 88.306V118.887H584.539V53.0024H604.721V63.9831Z" fill="white"/>
<path d="M697.099 84.8819C697.099 86.7711 696.981 88.739 696.745 90.7855H651.071C651.386 94.8787 652.684 98.0273 654.966 100.231C657.327 102.357 660.198 103.419 663.582 103.419C668.617 103.419 672.118 101.294 674.085 97.0434H695.565C694.464 101.373 692.457 105.269 689.546 108.733C686.714 112.196 683.134 114.912 678.806 116.88C674.479 118.847 669.64 119.831 664.29 119.831C657.838 119.831 652.094 118.454 647.059 115.699C642.023 112.944 638.089 109.008 635.257 103.892C632.424 98.7751 631.008 92.7928 631.008 85.9446C631.008 79.0964 632.385 73.1141 635.139 67.9976C637.971 62.8811 641.905 58.9454 646.941 56.1904C651.976 53.4353 657.759 52.0578 664.29 52.0578C670.663 52.0578 676.328 53.396 681.285 56.0723C686.242 58.7486 690.097 62.5663 692.851 67.5253C695.683 72.4843 697.099 78.2699 697.099 84.8819ZM676.446 79.5687C676.446 76.1052 675.266 73.3502 672.905 71.3036C670.545 69.257 667.594 68.2337 664.054 68.2337C660.67 68.2337 657.799 69.2177 655.438 71.1855C653.156 73.1534 651.74 75.9478 651.189 79.5687H676.446Z" fill="white"/>
<path d="M406.826 148.169V231.055H386.645V181.347L368.116 231.055H351.829L333.181 181.229V231.055H313V148.169H336.84L360.09 205.552L383.104 148.169H406.826Z" fill="white"/>
<path d="M431.489 158.323C427.948 158.323 425.037 157.3 422.755 155.253C420.552 153.128 419.451 150.53 419.451 147.46C419.451 144.312 420.552 141.714 422.755 139.667C425.037 137.542 427.948 136.48 431.489 136.48C434.951 136.48 437.783 137.542 439.986 139.667C442.268 141.714 443.409 144.312 443.409 147.46C443.409 150.53 442.268 153.128 439.986 155.253C437.783 157.3 434.951 158.323 431.489 158.323ZM441.521 165.171V231.055H421.339V165.171H441.521Z" fill="white"/>
<path d="M496.273 164.463C503.984 164.463 510.121 166.982 514.684 172.019C519.326 176.978 521.647 183.827 521.647 192.564V231.055H501.584V195.28C501.584 190.871 500.443 187.447 498.161 185.007C495.879 182.567 492.811 181.347 488.956 181.347C485.1 181.347 482.032 182.567 479.75 185.007C477.468 187.447 476.327 190.871 476.327 195.28V231.055H456.146V165.171H476.327V173.908C478.373 170.996 481.127 168.713 484.589 167.06C488.051 165.329 491.945 164.463 496.273 164.463Z" fill="white"/>
<path d="M531.659 197.995C531.659 191.226 532.918 185.283 535.435 180.166C538.032 175.05 541.533 171.114 545.939 168.359C550.345 165.604 555.263 164.226 560.692 164.226C565.019 164.226 568.953 165.132 572.494 166.942C576.113 168.753 578.946 171.193 580.991 174.263V143.682H601.173V231.055H580.991V221.61C579.103 224.758 576.388 227.277 572.848 229.166C569.386 231.055 565.334 232 560.692 232C555.263 232 550.345 230.622 545.939 227.867C541.533 225.034 538.032 221.059 535.435 215.942C532.918 210.747 531.659 204.765 531.659 197.995ZM580.991 198.113C580.991 193.075 579.575 189.1 576.743 186.188C573.989 183.275 570.605 181.819 566.593 181.819C562.58 181.819 559.157 183.275 556.325 186.188C553.571 189.022 552.194 192.957 552.194 197.995C552.194 203.033 553.571 207.047 556.325 210.039C559.157 212.951 562.58 214.407 566.593 214.407C570.605 214.407 573.989 212.951 576.743 210.039C579.575 207.126 580.991 203.151 580.991 198.113Z" fill="white"/>
<path d="M677.852 197.051C677.852 198.94 677.734 200.908 677.498 202.954H631.824C632.139 207.047 633.437 210.196 635.719 212.4C638.079 214.525 640.951 215.588 644.334 215.588C649.37 215.588 652.871 213.463 654.838 209.212H676.318C675.216 213.541 673.21 217.438 670.299 220.901C667.466 224.365 663.886 227.08 659.559 229.048C655.231 231.016 650.392 232 645.042 232C638.59 232 632.847 230.622 627.811 227.867C622.776 225.112 618.842 221.177 616.009 216.06C613.177 210.944 611.76 204.961 611.76 198.113C611.76 191.265 613.137 185.283 615.891 180.166C618.724 175.05 622.658 171.114 627.693 168.359C632.729 165.604 638.512 164.226 645.042 164.226C651.415 164.226 657.08 165.565 662.037 168.241C666.994 170.917 670.849 174.735 673.603 179.694C676.436 184.653 677.852 190.439 677.852 197.051ZM657.198 191.737C657.198 188.274 656.018 185.519 653.658 183.472C651.297 181.426 648.347 180.402 644.806 180.402C641.423 180.402 638.551 181.386 636.191 183.354C633.909 185.322 632.493 188.116 631.942 191.737H657.198Z" fill="white"/>
<path d="M684.486 197.995C684.486 191.226 685.745 185.283 688.263 180.166C690.859 175.05 694.36 171.114 698.766 168.359C703.173 165.604 708.09 164.226 713.519 164.226C717.846 164.226 721.78 165.132 725.321 166.942C728.94 168.753 731.773 171.193 733.819 174.263V143.682H754V231.055H733.819V221.61C731.93 224.758 729.216 227.277 725.675 229.166C722.213 231.055 718.161 232 713.519 232C708.09 232 703.173 230.622 698.766 227.867C694.36 225.034 690.859 221.059 688.263 215.942C685.745 210.747 684.486 204.765 684.486 197.995ZM733.819 198.113C733.819 193.075 732.402 189.1 729.57 186.188C726.816 183.275 723.433 181.819 719.42 181.819C715.407 181.819 711.985 183.275 709.152 186.188C706.398 189.022 705.022 192.957 705.022 197.995C705.022 203.033 706.398 207.047 709.152 210.039C711.985 212.951 715.407 214.407 719.42 214.407C723.433 214.407 726.816 212.951 729.57 210.039C732.402 207.126 733.819 203.151 733.819 198.113Z" fill="white"/>
<defs>
<linearGradient id="paint0_linear_2116_717" x1="123.065" y1="0.143942" x2="123.011" y2="268.909" gradientUnits="userSpaceOnUse">
<stop stop-color="white"/>
<stop offset="1" stop-color="white"/>
</linearGradient>
</defs>
</svg>
